<svg height="512" viewBox="0 0 64 64" width="512" xmlns="http://www.w3.org/2000/svg"><g id="Messaging"><path d="m46.47 16-3.136 2.807a2 2 0 0 1 -2.668 0l-3.136-2.807-14.53 13h38z" fill="#9bc9ff"/><path d="m23 3v6 8 12l14.53-13z" fill="#9bc9ff"/><path d="m61 29v-26l-14.53 13z" fill="#9bc9ff"/><path d="m37.53 16 3.136 2.807a2 2 0 0 0 2.668 0l3.136-2.807 14.53-13h-38z" fill="#9bc9ff"/><path d="m26.47 48 14.53 13v-12-8-6z" fill="#9bc9ff"/><path d="m3 35v26l14.53-13z" fill="#9bc9ff"/><path d="m26.47 48-3.136 2.807a2 2 0 0 1 -2.668 0l-3.136-2.807-14.53 13h38z" fill="#9bc9ff"/><path d="m17.53 48 3.136 2.807a2 2 0 0 0 2.668 0l3.136-2.807 14.53-13h-38z" fill="#9bc9ff"/><g fill="#1e81ce"><path d="m17 22h-12a1 1 0 0 1 0-2h12a1 1 0 0 1 0 2z"/><path d="m20 26h-12a1 1 0 0 1 0-2h12a1 1 0 0 1 0 2z"/><path d="m4 26h-1a1 1 0 0 1 0-2h1a1 1 0 0 1 0 2z"/><path d="m9 14h-1a1 1 0 0 1 0-2h1a1 1 0 0 1 0 2z"/><path d="m14 16h-1a1 1 0 0 0 0 2h1a1 1 0 0 0 0-2z"/><path d="m19 14a1 1 0 0 0 0-2h-7a1 1 0 0 0 0 2z"/><path d="m61 2h-38a1 1 0 0 0 -1 1v5h-3a1 1 0 0 0 0 2h3v6h-4a1 1 0 0 0 0 2h4v11a1 1 0 0 0 1 1h38a1 1 0 0 0 1-1v-26a1 1 0 0 0 -1-1zm-2.617 2-15.716 14.062a1 1 0 0 1 -1.334 0l-15.716-14.062zm-34.383 14h3a1 1 0 0 0 0-2h-3v-10.763l12.03 10.763-12.03 10.763zm1.617 10 11.913-10.658 2.47 2.21a3 3 0 0 0 4 0l2.47-2.21 11.913 10.658zm34.383-1.237-12.03-10.763 12.03-10.763z"/><path d="m14 10h1a1 1 0 0 0 0-2h-1a1 1 0 0 0 0 2z"/><path d="m51 50h-1a1 1 0 0 1 0-2h1a1 1 0 0 1 0 2z"/><path d="m46 54h-1a1 1 0 0 1 0-2h1a1 1 0 0 1 0 2z"/><path d="m58 54h-8a1 1 0 0 1 0-2h8a1 1 0 0 1 0 2z"/><path d="m56 58h-12a1 1 0 0 1 0-2h12a1 1 0 0 1 0 2z"/><path d="m61 58h-1a1 1 0 0 1 0-2h1a1 1 0 0 1 0 2z"/><path d="m56 46h-1a1 1 0 0 1 0-2h1a1 1 0 0 1 0 2z"/><path d="m46 48h-4v-6h3a1 1 0 0 0 0-2h-3v-5a1 1 0 0 0 -1-1h-38a1 1 0 0 0 -1 1v26a1 1 0 0 0 1 1h38a1 1 0 0 0 1-1v-11h4a1 1 0 0 0 0-2zm-7.617-12-15.716 14.062a1 1 0 0 1 -1.334 0l-15.716-14.062zm-34.383 1.237 12.03 10.763-12.03 10.763zm1.617 22.763 11.913-10.658 2.47 2.21a3 3 0 0 0 4 0l2.47-2.21 11.913 10.658zm34.383-1.237-12.03-10.763 12.03-10.763v10.763h-3a1 1 0 0 0 0 2h3z"/><path d="m52 44h-7a1 1 0 0 0 0 2h7a1 1 0 0 0 0-2z"/><path d="m49 42h1a1 1 0 0 0 0-2h-1a1 1 0 0 0 0 2z"/></g></g></svg>